<svg width="30" height="31" viewBox="0 0 30 31" fill="none" xmlns="http://www.w3.org/2000/svg">
<g clip-path="url(#clip0)">
<path d="M12.2328 19.3839C14.0594 21.1435 16.2319 22.4758 18.5977 23.2874L21.6201 20.6021C21.7102 20.5328 21.819 20.4936 21.9322 20.4897C22.0453 20.4858 22.1575 20.5174 22.2538 20.5804L28.2739 24.2547C28.5019 24.3844 28.6984 24.5664 28.8478 24.7864C28.9971 25.0065 29.0953 25.2585 29.1345 25.5225C29.1736 25.7866 29.1528 26.0555 29.0735 26.3079C28.9943 26.5604 28.8588 26.7896 28.6778 26.9773L26.0738 29.8547C25.7009 30.2669 25.2333 30.5761 24.7127 30.7546C24.192 30.9331 23.6346 30.9755 23.0901 30.8779C17.6593 29.9183 12.577 27.4089 8.42406 23.6365C4.35736 19.8221 1.43521 14.8915 0.0120846 9.4426C-0.128714 8.89983 -0.131487 8.33095 0.00403392 7.79109C0.139555 7.25123 0.408773 6.75869 0.7856 6.36122L3.48804 3.44599C3.65473 3.25421 3.86199 3.10442 4.09428 3.00781C4.32657 2.91121 4.57788 2.87031 4.8294 2.88817C5.08091 2.90602 5.32611 2.98218 5.54663 3.11093C5.76715 3.23968 5.95729 3.41769 6.10279 3.63163L10.2687 9.43486C10.3401 9.52578 10.3816 9.63748 10.3871 9.75349C10.3925 9.8695 10.3617 9.98369 10.299 10.0792L7.88841 13.3372C8.88761 15.653 10.3716 17.7185 12.2328 19.3839Z" fill="#AD00FF"/>
</g>
<defs>
<clipPath id="clip0">
<rect width="30" height="31" fill="#AD00FF"/>
</clipPath>
</defs>
</svg>
