<svg width="167" height="52" viewBox="0 0 167 52" fill="none" xmlns="http://www.w3.org/2000/svg">
<circle cx="141.367" cy="25.5354" r="25.5354" fill="#AD00FF"/>
<path d="M10.2549 35V17.9375H15.751C17.2588 17.9375 18.6142 18.2812 19.8174 18.9688C21.0205 19.6484 21.958 20.6133 22.6299 21.8633C23.3095 23.1055 23.6533 24.5 23.6611 26.0469V26.832C23.6611 28.3945 23.3291 29.7969 22.665 31.0391C22.0088 32.2734 21.0791 33.2422 19.876 33.9453C18.6806 34.6406 17.3447 34.9922 15.8681 35H10.2549ZM14.3681 21.1133V31.8359H15.7978C16.9775 31.8359 17.8838 31.418 18.5166 30.582C19.1494 29.7383 19.4658 28.4883 19.4658 26.832V26.0938C19.4658 24.4453 19.1494 23.2031 18.5166 22.3672C17.8838 21.5312 16.9619 21.1133 15.751 21.1133H14.3681ZM35.1713 30.4648C35.1713 29.8633 34.9564 29.3945 34.5267 29.0586C34.1049 28.7227 33.3588 28.375 32.2885 28.0156C31.2181 27.6562 30.3431 27.3086 29.6635 26.9727C27.4525 25.8867 26.347 24.3945 26.347 22.4961C26.347 21.5508 26.6205 20.7188 27.1674 20C27.722 19.2734 28.5033 18.7109 29.5111 18.3125C30.5189 17.9062 31.6517 17.7031 32.9095 17.7031C34.1361 17.7031 35.2338 17.9219 36.2025 18.3594C37.1791 18.7969 37.9369 19.4219 38.476 20.2344C39.015 21.0391 39.2845 21.9609 39.2845 23H35.183C35.183 22.3047 34.9681 21.7656 34.5385 21.3828C34.1166 21 33.5424 20.8086 32.8158 20.8086C32.0814 20.8086 31.4994 20.9727 31.0697 21.3008C30.6478 21.6211 30.4369 22.0312 30.4369 22.5312C30.4369 22.9688 30.6713 23.3672 31.14 23.7266C31.6088 24.0781 32.433 24.4453 33.6127 24.8281C34.7924 25.2031 35.7611 25.6094 36.5189 26.0469C38.3627 27.1094 39.2845 28.5742 39.2845 30.4414C39.2845 31.9336 38.722 33.1055 37.597 33.957C36.472 34.8086 34.9291 35.2344 32.9681 35.2344C31.5853 35.2344 30.3314 34.9883 29.2064 34.4961C28.0892 33.9961 27.2455 33.3164 26.6752 32.457C26.1127 31.5898 25.8314 30.5938 25.8314 29.4688H29.9564C29.9564 30.3828 30.1908 31.0586 30.6595 31.4961C31.1361 31.9258 31.9056 32.1406 32.9681 32.1406C33.6478 32.1406 34.183 31.9961 34.5736 31.707C34.972 31.4102 35.1713 30.9961 35.1713 30.4648ZM57.3713 30.4648C57.3713 29.8633 57.1564 29.3945 56.7267 29.0586C56.3049 28.7227 55.5588 28.375 54.4885 28.0156C53.4181 27.6562 52.5431 27.3086 51.8635 26.9727C49.6525 25.8867 48.547 24.3945 48.547 22.4961C48.547 21.5508 48.8205 20.7188 49.3674 20C49.922 19.2734 50.7033 18.7109 51.7111 18.3125C52.7189 17.9062 53.8517 17.7031 55.1095 17.7031C56.3361 17.7031 57.4338 17.9219 58.4025 18.3594C59.3791 18.7969 60.1369 19.4219 60.676 20.2344C61.215 21.0391 61.4845 21.9609 61.4845 23H57.383C57.383 22.3047 57.1681 21.7656 56.7385 21.3828C56.3166 21 55.7424 20.8086 55.0158 20.8086C54.2814 20.8086 53.6994 20.9727 53.2697 21.3008C52.8478 21.6211 52.6369 22.0312 52.6369 22.5312C52.6369 22.9688 52.8713 23.3672 53.34 23.7266C53.8088 24.0781 54.633 24.4453 55.8127 24.8281C56.9924 25.2031 57.9611 25.6094 58.7189 26.0469C60.5627 27.1094 61.4845 28.5742 61.4845 30.4414C61.4845 31.9336 60.922 33.1055 59.797 33.957C58.672 34.8086 57.1291 35.2344 55.1681 35.2344C53.7853 35.2344 52.5314 34.9883 51.4064 34.4961C50.2892 33.9961 49.4455 33.3164 48.8752 32.457C48.3127 31.5898 48.0314 30.5938 48.0314 29.4688H52.1564C52.1564 30.3828 52.3908 31.0586 52.8595 31.4961C53.3361 31.9258 54.1056 32.1406 55.1681 32.1406C55.8478 32.1406 56.383 31.9961 56.7736 31.707C57.172 31.4102 57.3713 30.9961 57.3713 30.4648ZM77.5885 21.1133H72.4674V35H68.3541V21.1133H63.3267V17.9375H77.5885V21.1133ZM93.3174 17.9375V29.1055C93.3174 30.3711 93.0478 31.4688 92.5088 32.3984C91.9697 33.3203 91.1963 34.0234 90.1885 34.5078C89.1806 34.9922 87.9892 35.2344 86.6142 35.2344C84.5361 35.2344 82.8994 34.6953 81.7041 33.6172C80.5088 32.5391 79.8994 31.0625 79.876 29.1875V17.9375H84.0127V29.2695C84.0595 31.1367 84.9267 32.0703 86.6142 32.0703C87.4658 32.0703 88.1103 31.8359 88.5478 31.3672C88.9853 30.8984 89.2041 30.1367 89.2041 29.082V17.9375H93.3174ZM96.4955 35V17.9375H101.992C103.499 17.9375 104.855 18.2812 106.058 18.9688C107.261 19.6484 108.199 20.6133 108.87 21.8633C109.55 23.1055 109.894 24.5 109.902 26.0469V26.832C109.902 28.3945 109.57 29.7969 108.906 31.0391C108.249 32.2734 107.32 33.2422 106.117 33.9453C104.921 34.6406 103.585 34.9922 102.109 35H96.4955ZM100.609 21.1133V31.8359H102.038C103.218 31.8359 104.124 31.418 104.757 30.582C105.39 29.7383 105.706 28.4883 105.706 26.832V26.0938C105.706 24.4453 105.39 23.2031 104.757 22.3672C104.124 21.5312 103.203 21.1133 101.992 21.1133H100.609ZM116.994 35H112.892V17.9375H116.994V35ZM134.903 26.8203C134.903 28.4844 134.594 29.957 133.977 31.2383C133.36 32.5195 132.481 33.5078 131.34 34.2031C130.207 34.8906 128.914 35.2344 127.461 35.2344C126.008 35.2344 124.719 34.9023 123.594 34.2383C122.469 33.5664 121.59 32.6094 120.957 31.3672C120.332 30.125 120.004 28.6992 119.973 27.0898V26.1289C119.973 24.457 120.278 22.9844 120.887 21.7109C121.504 20.4297 122.383 19.4414 123.524 18.7461C124.672 18.0508 125.977 17.7031 127.438 17.7031C128.883 17.7031 130.172 18.0469 131.305 18.7344C132.438 19.4219 133.317 20.4023 133.942 21.6758C134.574 22.9414 134.895 24.3945 134.903 26.0352V26.8203ZM130.719 26.1055C130.719 24.4102 130.434 23.125 129.863 22.25C129.301 21.3672 128.492 20.9258 127.438 20.9258C125.375 20.9258 124.285 22.4727 124.168 25.5664L124.156 26.8203C124.156 28.4922 124.434 29.7773 124.988 30.6758C125.543 31.5742 126.367 32.0234 127.461 32.0234C128.5 32.0234 129.301 31.582 129.863 30.6992C130.426 29.8164 130.711 28.5469 130.719 26.8906V26.1055Z" fill="white"/>
</svg>
