<svg width="149" height="149" viewBox="0 0 149 149" fill="none" xmlns="http://www.w3.org/2000/svg">
<path d="M71.7198 120.243C70.4168 118.327 70.1308 114.359 69.4079 113.305C68.7741 112.379 67.2763 112.025 66.3858 113.513C65.8161 114.465 66.2876 115.692 66.9581 116.705C67.7828 117.952 69.7074 119.877 71.7198 120.243Z" fill="#565656"/>
<path d="M65.3497 121.745C66.3372 121.99 69.0818 120.74 70.8719 121.175C69.5313 119.762 68.0731 118.908 66.9173 118.645C65.9783 118.432 64.9908 118.946 64.5466 119.779C64.1598 120.504 64.4838 121.531 65.3497 121.745Z" fill="#565656"/>
<path d="M74.0355 115.119C74.0324 114.189 73.1981 113.349 72.477 113.34C71.6485 113.329 70.9852 113.998 70.9721 114.996C70.956 116.226 71.1202 118.203 72.3521 120.049C72.3521 118.13 74.0395 116.181 74.0355 115.119Z" fill="#565656"/>
<path d="M77.9309 136.562C77.8824 137.262 77.4957 139.363 76.9511 140.153C77.4051 138.552 77.3876 135.413 77.321 133.963C77.3074 133.671 77.2952 133.376 77.2881 133.08C77.1477 133.083 77.0003 133.098 76.8477 133.131C76.0929 133.296 75.637 134.115 75.489 134.873C75.3408 135.631 75.4605 136.413 75.5678 137.178C75.6939 138.078 75.8019 138.981 75.8555 139.889C75.9002 140.648 75.9015 141.436 75.5943 142.131C76.2676 141.664 77.0268 141.34 77.7511 140.958C78.4754 140.575 79.1848 140.116 79.6699 139.456C80.1581 138.792 80.3858 137.952 80.3689 137.128C80.3522 136.303 80.0992 135.494 79.7042 134.769C79.4189 134.246 79.0496 133.754 78.5524 133.424C78.4287 133.343 78.1946 133.222 77.8862 133.146C77.9127 134.286 78.009 135.424 77.9309 136.562Z" fill="#565656"/>
<path d="M82.5774 126.539C82.6822 126.506 83.9335 126.171 83.9283 126.142L83.9277 126.14C83.8967 126.064 82.4267 126.375 82.307 126.404C81.6849 126.549 81.0771 126.75 80.4944 127.014C79.3141 127.549 78.3072 128.43 77.7885 129.635C77.3223 130.721 77.2602 131.91 77.2881 133.08C77.5073 133.077 77.7091 133.103 77.8862 133.146C77.8784 132.819 77.8759 132.491 77.8856 132.163C77.9256 130.774 78.2329 129.397 79.2371 128.375C80.1406 127.456 81.368 126.923 82.5774 126.539Z" fill="#565656"/>
<path d="M100.682 117.498C101.55 118.422 102.362 119.397 103.155 120.389C103.827 121.23 104.504 122.099 105.415 122.677C106.325 123.253 107.592 123.576 108.482 122.968C108.661 122.844 108.819 122.71 108.956 122.571C108.663 122.28 108.376 121.985 108.093 121.692C106.687 120.235 103.522 117.208 101.464 116.134C102.786 116.339 105.287 117.962 106.042 118.582C107.271 119.594 108.333 120.783 109.462 121.9C109.682 121.516 109.783 121.162 109.819 120.96C109.962 120.14 109.817 119.294 109.56 118.503C109.204 117.409 108.624 116.376 107.805 115.569C106.985 114.762 105.917 114.189 104.775 114.046C103.641 113.906 102.498 114.185 101.416 114.553C100.334 114.92 99.2776 115.379 98.1595 115.616C99.1586 115.97 99.9561 116.726 100.682 117.498Z" fill="#565656"/>
<path d="M112.928 125.364C114.647 125.994 116.505 125.819 118.178 125.133C119.004 124.797 119.79 124.374 120.535 123.882C120.678 123.788 122.401 122.596 122.355 122.491L122.353 122.49C122.328 122.455 120.789 123.404 120.655 123.478C119.107 124.336 117.391 125.069 115.594 125.104C113.596 125.143 111.906 124.135 110.459 122.844C110.117 122.54 109.787 122.223 109.462 121.9C109.335 122.122 109.17 122.352 108.956 122.571C110.117 123.721 111.381 124.797 112.928 125.364Z" fill="#565656"/>
<path d="M74.749 123.409C76.7706 125.463 80.1689 126.067 82.8748 125.7C86.4026 125.221 89.6646 123.604 93.2382 123.327C95.0353 123.19 96.8171 123.389 98.5605 123.826C98.8102 123.894 101.138 124.693 101.163 124.643C101.253 124.456 98.6517 123.418 98.3943 123.327C96.5874 122.688 94.6635 122.404 92.7487 122.473C88.1499 122.635 83.3546 125.441 78.7864 123.938C76.9535 123.341 74.7819 122.099 74.9915 119.865C75.1538 118.135 76.9542 115.988 78.8917 116.854C79.6769 117.17 79.671 118.401 78.9945 118.514C78.7255 118.561 78.2742 117.852 78.1416 117.67C77.6883 117.044 75.9595 117.384 76.8035 119.488C77.6171 121.516 80.3792 121.703 81.7101 119.777C84.6376 115.54 79.4802 112.897 76.0565 115.413C73.5578 117.249 72.4383 121.059 74.749 123.409Z" fill="#565656"/>
<path d="M44.2227 140.687C47.1277 140.292 49.8141 138.961 52.7572 138.734C54.2375 138.62 55.7049 138.783 57.1406 139.143C57.3463 139.199 59.2637 139.858 59.2838 139.817C59.3581 139.663 57.2156 138.809 57.0041 138.732C55.516 138.206 53.931 137.973 52.3543 138.029C48.5665 138.165 44.6178 140.474 40.8559 139.237C39.3466 138.744 37.5577 137.722 37.7304 135.882C37.8643 134.458 39.3466 132.69 40.9427 133.402C41.5887 133.663 41.5842 134.674 41.0266 134.771C40.8056 134.807 40.4336 134.224 40.3243 134.074C39.9512 133.559 38.5279 133.838 39.2231 135.572C39.8931 137.24 42.1675 137.396 43.2636 135.809C45.6746 132.318 41.4269 130.144 38.6073 132.216C36.5497 133.73 35.6273 136.865 37.5306 138.8C39.1952 140.492 41.9941 140.991 44.2227 140.687Z" fill="#565656"/>
<path d="M94.3258 120.95C97.6685 122.772 100.66 122.423 104.757 125.471C102.214 121.157 95.3656 121.576 91.9194 116.843C90.7062 115.177 89.6339 112.722 91.23 110.929C92.4659 109.541 95.3767 108.833 96.4987 110.806C96.974 111.576 96.1902 112.631 95.5338 112.303C95.2732 112.17 95.3333 111.275 95.3346 111.033C95.3398 110.209 93.6357 109.406 93.0304 111.753C92.4464 114.015 94.7074 115.927 97.0741 115.109C102.282 113.313 99.5116 107.77 94.9673 107.77C91.651 107.768 88.2739 110.341 88.777 113.828C89.2169 116.879 91.7616 119.554 94.3258 120.95Z" fill="#565656"/>
<path d="M62.1977 140.034C65.2594 140.391 68.4973 138.617 70.5053 136.497C73.1237 133.733 73.5539 130.753 77.5505 127.573C72.7287 128.924 71.3771 135.653 65.9183 137.769C63.9963 138.516 61.3486 138.921 60.0255 136.92C59.0012 135.368 59.0626 132.373 61.2576 131.795C62.1234 131.532 62.9421 132.562 62.4558 133.11C62.2625 133.331 61.4114 133.042 61.1792 132.977C60.3826 132.762 59.1692 134.203 61.2827 135.39C63.3199 136.534 65.7469 134.84 65.5645 132.342C65.1635 126.849 59.0956 128.104 57.9295 132.496C57.0786 135.701 58.6992 139.625 62.1977 140.034Z" fill="#565656"/>
<path d="M69.4758 126.198C68.9312 124.789 67.1709 124.491 66.3555 125.64C65.5095 126.832 66.5424 127.306 66.9207 126.981C67.0313 126.889 67.4212 126.511 67.583 126.58C67.9897 126.754 67.8086 127.526 67.2686 127.607C65.9228 127.859 65.117 126.241 65.2754 125.132C65.4806 123.698 67.0293 123.246 68.2684 123.147C71.3596 122.892 73.9446 125.373 76.8049 126.168C77.9947 126.499 79.2442 126.611 80.4736 126.481C80.6489 126.463 82.4363 126.203 82.4086 126.073C82.4002 126.038 80.8196 126.188 80.6534 126.193C79.4938 126.206 78.3465 126.062 77.2401 125.704C75.0407 124.994 73.2383 123.49 71.0977 122.659C69.4564 122.02 67.2336 121.888 65.6564 122.872C63.854 123.998 63.9828 126.556 65.2736 128.084C67.0422 130.176 70.6742 129.296 69.4758 126.198Z" fill="#565656"/>
<path d="M90.6164 127.652C96.3577 125.359 102.734 128.577 108.648 128.421C111.11 128.355 113.556 127.839 115.823 126.875C116.146 126.736 119.401 125.196 119.271 124.965L119.271 124.966C119.236 124.903 116.312 126.114 115.997 126.221C113.794 126.922 111.525 127.319 109.208 127.284C104.6 127.215 100.286 125.4 95.7215 125.066C92.2208 124.809 87.9079 125.857 85.4777 128.655C82.7007 131.852 84.4397 136.649 87.7922 138.807C92.3857 141.763 98.7926 137.962 94.699 132.759C92.8379 130.393 89.3087 130.854 88.4266 133.521C87.5109 136.287 89.7555 136.583 90.2885 135.747C90.4438 135.502 90.9662 134.557 91.3147 134.595C92.1917 134.688 92.2978 136.265 91.3161 136.734C88.8988 137.999 86.4173 135.388 86.0714 133.181C85.6238 130.33 88.3122 128.564 90.6164 127.652Z" fill="#565656"/>
<path d="M110.241 130.628C111.462 130.299 112.697 130.006 113.889 129.576C114.793 129.248 115.665 128.824 116.525 128.395C118.053 127.635 119.49 126.713 120.815 125.642C120.887 125.584 122.662 124.008 122.959 123.696C123.392 123.269 123.823 122.836 124.262 122.413C124.716 121.978 126.512 119.92 126.566 119.852C127.65 118.516 128.584 117.068 129.35 115.525C129.778 114.665 130.204 113.793 130.53 112.889C130.96 111.697 131.255 110.462 131.584 109.24C132.164 107.091 132.887 103.898 135.273 103.056C136.59 102.591 138.186 102.896 138.834 104.25C139.545 105.734 138.783 107.416 137.336 108.079C136.629 108.365 135.782 108.395 135.11 107.993C134.544 107.656 134.156 106.942 134.279 106.277C134.414 105.557 135.175 105.103 135.877 105.158C136.232 105.184 136.522 105.348 136.732 105.631C136.738 105.641 136.753 105.677 136.767 105.709C136.532 105.765 136.319 105.909 136.204 106.142C136.001 106.556 136.172 107.055 136.585 107.259C136.998 107.462 137.498 107.292 137.701 106.878C137.904 106.464 137.733 105.965 137.32 105.761C137.171 105.689 137.014 105.679 136.861 105.697C136.808 105.559 136.755 105.434 136.74 105.414C136.376 104.949 135.758 104.832 135.201 104.959C134.002 105.237 133.552 106.49 134.048 107.555C134.576 108.689 135.939 109.091 137.097 108.856C138.247 108.621 139.257 107.767 139.702 106.684C140.595 104.51 139.144 102.06 136.806 101.841C134.227 101.598 132.485 103.482 131.534 105.664C130.604 107.8 130.246 110.114 129.501 112.308C128.97 113.876 128.181 115.405 127.321 116.816C126.488 118.183 125.516 119.453 124.448 120.645C123.96 121.196 123.465 121.745 122.987 122.304C122.536 122.697 122.093 123.097 121.645 123.493C120.453 124.56 119.183 125.532 117.816 126.365C116.406 127.226 114.875 128.014 113.308 128.545C111.114 129.29 108.799 129.648 106.664 130.579C104.482 131.531 102.599 133.272 102.841 135.85C103.06 138.189 105.51 139.64 107.684 138.747C108.767 138.302 109.622 137.292 109.855 136.141C110.091 134.982 109.689 133.621 108.555 133.094C107.49 132.596 106.237 133.047 105.959 134.245C105.831 134.804 105.948 135.421 106.414 135.785C106.435 135.8 106.558 135.853 106.697 135.904C106.678 136.058 106.689 136.216 106.761 136.365C106.964 136.777 107.464 136.949 107.877 136.746C108.291 136.542 108.461 136.043 108.258 135.629C108.055 135.215 107.556 135.047 107.143 135.249C106.909 135.363 106.764 135.577 106.71 135.812C106.678 135.799 106.641 135.784 106.631 135.777C106.348 135.567 106.184 135.277 106.157 134.921C106.103 134.221 106.556 133.459 107.276 133.323C107.942 133.201 108.655 133.588 108.994 134.154C109.396 134.827 109.365 135.673 109.08 136.381C108.416 137.828 106.733 138.59 105.249 137.879C103.896 137.231 103.591 135.635 104.055 134.317C104.898 131.933 108.091 131.209 110.241 130.628Z" fill="#565656"/>
<path d="M126.655 81.8756C127.023 79.1685 126.418 75.7701 124.363 73.7485C122.015 71.4392 118.206 72.558 116.369 75.0561C113.852 78.4798 116.494 83.6371 120.733 80.7103C122.658 79.3787 122.471 76.6173 120.444 75.8044C118.339 74.9604 118 76.6885 118.625 77.1424C118.807 77.275 119.516 77.725 119.47 77.9947C119.354 78.6705 118.125 78.6769 117.809 77.8919C116.943 75.9537 119.09 74.154 120.82 73.9917C123.055 73.7815 124.296 75.9537 124.893 77.7866C126.397 82.3554 123.591 87.1501 123.427 91.7494C123.359 93.663 123.643 95.5883 124.282 97.3945C124.373 97.6513 125.412 100.252 125.598 100.163C125.648 100.138 124.849 97.8104 124.781 97.56C124.343 95.8172 124.145 94.0355 124.283 92.2378C124.559 88.6647 126.176 85.4033 126.655 81.8756Z" fill="#565656"/>
<path d="M136.346 40.9717C137.855 39.9287 137.709 37.7647 136.12 37.1278C134.471 36.4669 134.206 37.821 134.695 38.1754C134.838 38.2796 135.393 38.6338 135.357 38.8441C135.267 39.3737 134.304 39.3788 134.056 38.7645C133.378 37.2467 135.06 35.8363 136.415 35.7088C138.166 35.5433 139.138 37.2448 139.607 38.6817C140.784 42.2613 138.586 46.018 138.457 49.6201C138.404 51.1204 138.626 52.6286 139.127 54.0441C139.199 54.2459 140.013 56.2837 140.158 56.2125C140.198 56.1945 139.572 54.3701 139.518 54.1747C139.175 52.8071 139.019 51.4114 139.128 50.0042C139.345 47.2047 140.611 44.6488 140.987 41.8835C141.275 39.7649 140.8 37.1025 139.191 35.5181C137.351 33.7074 134.366 34.5842 132.928 36.543C130.956 39.225 133.026 43.2663 136.346 40.9717Z" fill="#565656"/>
<path d="M116.065 96.0752C116.882 93.7077 114.971 91.4461 112.708 92.0308C110.361 92.6367 111.164 94.3401 111.989 94.335C112.23 94.3337 113.126 94.2741 113.257 94.5342C113.587 95.1893 112.531 95.9743 111.762 95.499C109.788 94.3764 110.497 91.4661 111.884 90.2311C113.677 88.6336 116.132 89.7066 117.799 90.9198C122.532 94.3666 122.113 101.216 126.427 103.757C123.379 99.6593 123.728 96.6695 121.906 93.3255C120.509 90.7625 117.834 88.2177 114.784 87.7774C111.297 87.2742 108.724 90.6514 108.725 93.9676C108.725 98.512 114.268 101.282 116.065 96.0752Z" fill="#565656"/>
<path d="M132.701 63.6095C135.204 63.5732 136.681 61.0091 135.363 59.0787C133.996 57.0771 132.666 58.4112 132.951 59.186C133.034 59.411 133.396 60.2336 133.195 60.4457C132.69 60.9786 131.594 60.2523 131.779 59.3664C132.164 57.1295 135.142 56.8068 136.776 57.6927C138.886 58.8348 138.713 61.5089 138.138 63.4884C136.506 69.1109 129.922 71.0446 128.998 75.9665C131.815 71.7088 134.747 71.0181 137.271 68.1694C139.208 65.9835 140.692 62.6032 140.068 59.585C139.356 56.1348 135.306 54.8635 132.187 55.9906C127.914 57.5356 127.193 63.6909 132.701 63.6095Z" fill="#565656"/>
<path d="M126.66 76.2402C127.018 77.3473 127.161 78.4932 127.149 79.6534C127.143 79.819 126.993 81.4002 127.028 81.4085C127.158 81.4363 127.418 79.649 127.437 79.473C127.566 78.2449 127.454 76.9948 127.123 75.8043C126.329 72.9451 123.847 70.359 124.103 67.2684C124.202 66.03 124.654 64.4804 126.087 64.2748C127.196 64.1177 128.813 64.9221 128.562 66.2686C128.481 66.808 127.71 66.9904 127.535 66.583C127.466 66.4206 127.843 66.032 127.937 65.9208C128.26 65.5418 127.788 64.5102 126.596 65.3562C125.446 66.1709 125.744 67.9306 127.152 68.4751C130.252 69.6743 131.132 66.0416 129.038 64.2735C127.511 62.984 124.953 62.8547 123.828 64.6558C122.844 66.2337 122.975 68.4551 123.613 70.0977C124.445 72.2384 125.949 74.0413 126.66 76.2402Z" fill="#565656"/>
<path d="M128.239 108.207C128.274 110.525 127.877 112.794 127.177 114.998C127.068 115.311 125.858 118.236 125.92 118.271C126.152 118.402 127.692 115.147 127.83 114.824C128.794 112.556 129.311 110.109 129.376 107.647C129.532 101.734 126.314 95.358 128.607 89.6167C129.519 87.3125 131.286 84.6234 134.136 85.0722C136.343 85.4182 138.954 87.8984 137.689 90.3157C137.221 91.2974 135.644 91.1926 135.549 90.3157C135.512 89.9658 136.457 89.4434 136.702 89.2887C137.539 88.7558 137.242 86.5112 134.475 87.4262C131.809 88.309 131.348 91.8386 133.713 93.6993C138.918 97.7935 142.719 91.3866 139.762 86.7925C137.605 83.44 132.806 81.6997 129.61 84.478C126.812 86.9082 125.765 91.2211 126.021 94.7211C126.355 99.2868 128.17 103.6 128.239 108.207Z" fill="#565656"/>
<path d="M114.259 68.4094C115.313 69.1311 119.282 69.4176 121.198 70.7201C120.832 68.7076 118.907 66.7837 117.661 65.959C116.647 65.2884 115.42 64.817 114.467 65.386C112.98 66.2766 113.334 67.775 114.259 68.4094Z" fill="#565656"/>
<path d="M122.13 69.8729C121.695 68.0814 122.944 65.3381 122.7 64.3499C122.486 63.4841 121.459 63.1594 120.735 63.5468C119.902 63.9905 119.388 64.9786 119.602 65.9176C119.863 67.0733 120.719 68.5315 122.13 69.8729Z" fill="#565656"/>
<path d="M115.952 69.9717C114.953 69.9853 114.284 70.6488 114.295 71.4766C114.305 72.1991 115.143 73.0333 116.074 73.0365C117.135 73.0398 119.086 71.3524 121.005 71.3524C119.158 70.1212 117.182 69.9556 115.952 69.9717Z" fill="#565656"/>
<path d="M138.133 74.5679C137.368 74.4607 136.587 74.341 135.829 74.4885C135.071 74.6371 134.251 75.0924 134.088 75.8479C134.054 75.9998 134.039 76.1472 134.036 76.2882C134.332 76.2947 134.627 76.3076 134.918 76.3212C136.369 76.3871 139.507 76.4059 141.109 75.952C140.319 76.4952 138.217 76.8826 137.518 76.9304C136.38 77.0099 135.241 76.9135 134.102 76.8857C134.177 77.1955 134.299 77.4289 134.38 77.5531C134.709 78.0497 135.201 78.4184 135.725 78.7048C136.449 79.0994 137.259 79.3523 138.084 79.3691C138.908 79.3859 139.747 79.159 140.412 78.6706C141.072 78.1857 141.53 77.4749 141.912 76.752C142.295 76.0263 142.62 75.2684 143.086 74.5944C142.391 74.9024 141.603 74.9004 140.844 74.8557C139.937 74.8014 139.033 74.6934 138.133 74.5679Z" fill="#565656"/>
<path d="M130.591 76.7894C129.385 77.3081 128.503 78.3143 127.969 79.4952C127.705 80.0778 127.504 80.6851 127.358 81.3079C127.329 81.4269 127.019 82.8969 127.095 82.9285L127.096 82.9285C127.126 82.9336 127.461 81.6817 127.495 81.5776C127.879 80.3689 128.412 79.1408 129.33 78.238C130.351 77.2337 131.728 76.9251 133.118 76.8857C133.446 76.8761 133.774 76.8793 134.102 76.8857C134.059 76.7086 134.031 76.5068 134.036 76.2882C132.864 76.2598 131.675 76.3232 130.591 76.7894Z" fill="#565656"/>
<path d="M118.546 136.156C119.311 134.679 119.924 131.6 120.15 130.166C120.195 129.876 120.242 129.585 120.294 129.296C120.156 129.269 120.008 129.256 119.853 129.258C119.08 129.266 118.469 129.978 118.172 130.689C117.875 131.403 117.836 132.193 117.787 132.964C117.73 133.872 117.654 134.777 117.525 135.678C117.417 136.429 117.26 137.202 116.82 137.822C117.573 137.499 118.382 137.333 119.168 137.105C119.954 136.875 120.741 136.568 121.348 136.019C121.96 135.466 122.351 134.689 122.5 133.878C122.649 133.067 122.564 132.223 122.323 131.434C122.148 130.863 121.885 130.307 121.464 129.885C121.359 129.781 121.154 129.615 120.867 129.479C120.665 130.6 120.53 131.736 120.225 132.835C120.038 133.511 119.237 135.492 118.546 136.156Z" fill="#565656"/>
<path d="M137.112 117.547C136.447 118.237 134.465 119.038 133.79 119.225C132.691 119.531 131.557 119.665 130.435 119.867C130.57 120.154 130.736 120.359 130.84 120.463C131.262 120.885 131.819 121.149 132.389 121.322C133.178 121.564 134.022 121.648 134.834 121.501C135.645 121.352 136.421 120.96 136.974 120.349C137.524 119.741 137.83 118.955 138.059 118.169C138.289 117.382 138.454 116.573 138.776 115.819C138.157 116.259 137.385 116.417 136.632 116.525C135.733 116.655 134.826 116.73 133.919 116.788C133.148 116.836 132.358 116.876 131.646 117.172C130.932 117.47 130.222 118.081 130.212 118.852C130.211 119.01 130.224 119.157 130.25 119.294C130.541 119.241 130.832 119.195 131.121 119.15C132.555 118.923 135.634 118.311 137.112 117.547Z" fill="#565656"/>
<path d="M130.435 119.867C130.358 119.702 130.29 119.51 130.25 119.294C129.096 119.501 128.044 119.973 126.975 120.477C126.125 120.877 124.853 121.938 123.814 123.147C122.747 124.123 121.839 125.248 121.476 126.021C120.973 127.088 120.502 128.142 120.294 129.296C120.51 129.335 120.702 129.402 120.866 129.479C120.925 129.157 120.976 128.832 121.064 128.516C121.7 126.203 122.84 124.544 124.721 122.71C126.169 121.421 127.607 120.576 129.471 120.064C129.787 119.977 130.112 119.925 130.435 119.867Z" fill="#565656"/>
<path d="M123.631 104.414C123.055 103.505 122.185 102.828 121.343 102.154C120.353 101.363 119.378 100.551 118.454 99.6825C117.682 98.9557 116.925 98.1596 116.57 97.1598C116.335 98.2786 115.876 99.3354 115.509 100.416C115.141 101.497 114.861 102.641 115.002 103.775C115.144 104.918 115.716 105.985 116.524 106.805C117.332 107.624 118.364 108.204 119.458 108.56C120.249 108.818 121.096 108.962 121.915 108.82C122.117 108.783 122.472 108.682 122.856 108.462C121.737 107.333 120.549 106.272 119.538 105.043C118.916 104.286 117.295 101.787 117.089 100.464C118.164 102.522 121.189 105.687 122.647 107.093C122.94 107.376 123.236 107.662 123.526 107.955C123.666 107.82 123.8 107.662 123.923 107.482C124.531 106.593 124.208 105.325 123.631 104.414Z" fill="#565656"/>
<path d="M123.799 109.459C125.09 110.905 126.099 112.596 126.06 114.594C126.023 116.391 125.29 118.107 124.432 119.655C124.358 119.789 123.411 121.329 123.445 121.354L123.447 121.354C123.551 121.402 124.743 119.679 124.837 119.534C125.328 118.789 125.752 118.005 126.089 117.178C126.774 115.505 126.95 113.647 126.32 111.928C125.753 110.381 124.677 109.118 123.526 107.955C123.308 108.17 123.077 108.336 122.856 108.462C123.178 108.787 123.495 109.118 123.799 109.459Z" fill="#565656"/>
<path d="M31.6139 143.226C44.4211 143.495 57.2303 143.657 70.0384 143.787C70.0687 143.793 70.1036 143.779 70.0985 143.817C70.1127 143.969 70.1922 144.133 70.242 144.27C70.738 145.603 71.6034 146.755 72.7338 147.646C73.3017 148.087 73.9457 148.462 74.6675 148.708C75.3814 148.953 76.202 149.056 76.9748 148.968C78.5327 148.803 79.9181 148.016 80.9586 146.954C81.4818 146.419 81.9266 145.805 82.2706 145.124C82.4518 144.73 82.5708 144.335 82.7344 143.939C82.7377 143.939 82.7408 143.941 82.7448 143.942C87.2924 144.237 91.8659 144.272 96.4212 144.277C100.635 144.28 105.19 144.608 109.353 143.811C110.013 143.661 110.581 143.386 111.116 143.066C112.011 142.523 112.924 141.78 113.403 140.838C113.41 140.843 113.453 140.973 113.447 140.958C113.856 141.578 114.291 142.186 114.926 142.605C115.401 142.944 115.944 143.181 116.501 143.328C117.063 143.465 117.633 143.487 118.183 143.442C118.725 143.369 119.258 143.255 119.739 143.05C120.718 142.669 121.544 142.071 122.243 141.402C123.647 140.05 124.549 138.395 125.145 136.735C125.309 136.256 125.467 135.779 125.59 135.285C125.596 135.267 125.588 135.294 125.589 135.285C125.657 134.948 125.703 134.606 125.727 134.262C125.739 134.272 126.499 135.426 127.293 136.014C129.224 137.444 131.648 137.864 133.893 138.491C135.307 138.813 138.454 141.857 136.483 143.828C134.512 145.798 134.498 141.21 132.903 140.919C129.966 140.385 130.735 144.199 131.315 144.959C131.635 145.434 132.065 145.904 132.639 146.259C133.206 146.616 133.92 146.859 134.694 146.85C136.254 146.846 137.886 145.747 138.668 144.048C139.354 142.523 139.242 141.103 138.415 139.676C138.108 139.232 137.727 138.833 137.297 138.487C136.424 137.808 135.389 137.363 134.329 137.027C132.278 136.368 129.847 136.249 128.069 134.924C126.352 133.651 125.775 131.128 125.068 129.234C125.025 129.353 124.972 129.476 124.943 129.6C124.54 132.643 124.263 135.649 122.565 138.295C122.132 138.963 121.626 139.587 121.043 140.119C120.461 140.649 119.798 141.095 119.087 141.346C118.736 141.491 118.371 141.548 118.013 141.593C117.656 141.609 117.303 141.588 116.97 141.5C116.643 141.399 116.329 141.258 116.051 141.05C114.244 139.866 114.06 136.189 113.63 134.516C112.876 137.022 112.498 139.839 110.045 141.278C109.665 141.499 109.247 141.687 108.857 141.762C99.8286 143.022 89.9503 142.113 80.8796 141.582C80.7626 142.448 80.6565 143.335 80.2775 144.129C80.0447 144.598 79.7343 145.035 79.3696 145.414C78.6421 146.173 77.6895 146.695 76.7407 146.803C76.2661 146.861 75.8166 146.811 75.3497 146.662C74.8887 146.512 74.4412 146.265 74.0331 145.955C73.2182 145.334 72.5449 144.467 72.186 143.53C72.0909 143.277 71.9073 141.8 71.7036 141.73C58.2962 141.774 45.0206 141.969 31.612 142.277C31.6598 142.488 31.6553 143.035 31.6139 143.226Z" fill="#565656"/>
<path d="M3.72636 145.074C4.79535 145.578 5.98652 145.033 5.98652 144.078C5.98652 143.661 5.66055 143.351 5.29335 143.134L20.2301 143.134C20.1881 143.005 20.1597 142.869 20.1597 142.726C20.1597 142.581 20.1881 142.446 20.2301 142.316L5.36371 142.316C5.72462 142.108 6.03768 141.818 6.03768 141.432C6.03768 140.519 4.77979 139.823 3.72636 140.388C1.74863 141.447 3.60169e-05 142.732 3.60169e-05 142.732C3.60169e-05 142.732 1.72612 144.136 3.72636 145.074Z" fill="#565656"/>
<path d="M143.817 70.0978C143.778 70.1029 143.793 70.068 143.787 70.0383C143.658 57.2291 143.495 44.4199 143.225 31.6145C143.035 31.6559 142.489 31.6591 142.278 31.6112C141.968 45.0194 141.774 58.2955 141.731 71.7035C141.801 71.9073 143.277 72.0909 143.53 72.1854C144.467 72.5448 145.334 73.2168 145.955 74.033C146.264 74.4404 146.513 74.8893 146.663 75.349C146.812 75.8159 146.861 76.2647 146.804 76.74C146.696 77.6888 146.173 78.6421 145.413 79.3689C145.035 79.7329 144.599 80.044 144.13 80.2774C143.335 80.6552 142.447 80.7625 141.582 80.8789C142.114 89.9495 143.022 99.8279 141.762 108.856C141.687 109.247 141.498 109.664 141.278 110.044C139.84 112.497 137.022 112.876 134.516 113.63C136.189 114.059 139.866 114.243 141.05 116.051C141.259 116.329 141.399 116.642 141.5 116.97C141.588 117.302 141.61 117.655 141.594 118.013C141.548 118.37 141.49 118.735 141.347 119.087C141.094 119.797 140.649 120.462 140.119 121.042C139.587 121.627 138.963 122.132 138.295 122.564C135.649 124.262 132.644 124.541 129.6 124.941C129.477 124.971 129.353 125.024 129.234 125.067C131.129 125.774 133.651 126.352 134.925 128.069C136.25 129.847 136.369 132.279 137.027 134.328C137.363 135.389 137.808 136.424 138.487 137.295C138.833 137.725 139.233 138.106 139.677 138.414C141.104 139.242 142.523 139.353 144.048 138.668C145.748 137.886 146.846 136.254 146.85 134.694C146.859 133.919 146.616 133.206 146.259 132.64C145.904 132.065 145.434 131.635 144.959 131.313C144.2 130.734 140.385 129.966 140.919 132.903C141.21 134.497 145.799 134.512 143.828 136.482C141.857 138.454 138.813 135.307 138.49 133.893C137.865 131.646 137.445 129.222 136.015 127.292C135.426 126.497 134.272 125.737 134.262 125.726C134.606 125.703 134.948 125.657 135.286 125.589C135.293 125.587 135.267 125.595 135.287 125.591C135.779 125.466 136.256 125.309 136.735 125.145C138.394 124.549 140.05 123.647 141.403 122.243C142.072 121.542 142.67 120.718 143.05 119.738C143.256 119.258 143.37 118.725 143.442 118.183C143.487 117.632 143.466 117.063 143.329 116.501C143.181 115.943 142.944 115.401 142.605 114.925C142.186 114.29 141.578 113.856 140.958 113.447C140.972 113.452 140.843 113.409 140.839 113.402C141.78 112.924 142.523 112.01 143.068 111.115C143.387 110.579 143.661 110.014 143.812 109.353C144.608 105.189 144.281 100.634 144.276 96.4211C144.271 91.8652 144.238 87.2924 143.942 82.7447C143.941 82.7414 143.94 82.7363 143.939 82.733C144.335 82.5707 144.731 82.4517 145.125 82.2694C145.805 81.9265 146.419 81.481 146.954 80.9585C148.018 79.9167 148.803 78.5326 148.97 76.9748C149.056 76.202 148.954 75.3806 148.709 74.6674C148.463 73.9449 148.088 73.3016 147.646 72.7331C146.755 71.6027 145.603 70.7386 144.27 70.242C144.132 70.1921 143.97 70.1127 143.817 70.0978Z" fill="#565656"/>
<path d="M141.434 6.03761C141.818 6.03761 142.109 5.7246 142.317 5.36244L142.317 20.2294C142.446 20.188 142.582 20.1597 142.726 20.1597C142.869 20.1597 143.005 20.188 143.135 20.2294L143.135 5.29261C143.351 5.66058 143.66 5.98652 144.078 5.98652C145.033 5.98652 145.578 4.79464 145.075 3.725C144.136 1.72669 142.732 -2.21536e-07 142.732 -2.21536e-07C142.732 -2.21536e-07 141.448 1.74803 140.389 3.725C139.824 4.77977 140.519 6.03761 141.434 6.03761Z" fill="#565656"/>
<path d="M29.8446 144.055C30.5785 144.055 31.1735 143.459 31.1735 142.726C31.1735 141.99 30.5785 141.396 29.8446 141.396C29.1098 141.396 28.5148 141.99 28.5148 142.726C28.5148 143.459 29.1098 144.055 29.8446 144.055Z" fill="#565656"/>
<path d="M22.0345 144.055C22.7684 144.055 23.3634 143.459 23.3634 142.726C23.3634 141.99 22.7684 141.396 22.0345 141.396C21.3004 141.396 20.7048 141.99 20.7048 142.726C20.7048 143.459 21.3004 144.055 22.0345 144.055Z" fill="#565656"/>
<path d="M25.9515 144.861C27.1311 144.861 28.0875 143.906 28.0875 142.726C28.0875 141.545 27.1311 140.588 25.9515 140.588C24.7713 140.588 23.8149 141.545 23.8149 142.726C23.8149 143.906 24.7713 144.861 25.9515 144.861Z" fill="#565656"/>
<path d="M141.396 29.8448C141.396 30.578 141.992 31.1723 142.726 31.1723C143.46 31.1723 144.055 30.578 144.055 29.8448C144.055 29.1094 143.46 28.515 142.726 28.515C141.992 28.515 141.396 29.1094 141.396 29.8448Z" fill="#565656"/>
<path d="M144.055 22.0338C144.055 21.3004 143.46 20.7042 142.726 20.7042C141.992 20.7042 141.396 21.3004 141.396 22.0338C141.396 22.769 141.992 23.3634 142.726 23.3634C143.46 23.3634 144.055 22.769 144.055 22.0338Z" fill="#565656"/>
<path d="M140.589 25.9509C140.589 27.1311 141.546 28.0862 142.726 28.0862C143.905 28.0862 144.862 27.1311 144.862 25.9509C144.862 24.7706 143.905 23.8156 142.726 23.8156C141.546 23.8156 140.589 24.7706 140.589 25.9509Z" fill="#565656"/>
<path d="M130.894 133.827C132.255 133.827 133.358 132.724 133.358 131.363C133.358 130.001 132.255 128.898 130.894 128.898C129.533 128.898 128.43 130.001 128.43 131.363C128.43 132.724 129.533 133.827 130.894 133.827Z" fill="#565656"/>
<path d="M124.145 125.801C124.145 126.671 124.852 127.377 125.722 127.377C126.592 127.377 127.298 126.671 127.298 125.801C127.298 124.932 126.592 124.225 125.722 124.225C124.852 124.225 124.145 124.932 124.145 125.801Z" fill="#565656"/>
</svg>
